<?xml version="1.0" encoding="UTF-8"?>
<svg xmlns="http://www.w3.org/2000/svg" width="409" height="37">
   <defs>
      <style type="text/css">
    @namespace "http://www.w3.org/2000/svg";
    .line                 {fill: none; stroke: #332900; stroke-width: 1;}
    .bold-line            {stroke: #141000; shape-rendering: crispEdges; stroke-width: 2;}
    .thin-line            {stroke: #1F1800; shape-rendering: crispEdges}
    .filled               {fill: #332900; stroke: none;}
    text.terminal         {font-family: Verdana, Sans-serif;
                            font-size: 12px;
                            fill: #141000;
                            font-weight: bold;
                          }
    text.nonterminal      {font-family: Verdana, Sans-serif;
                            font-size: 12px;
                            fill: #1A1400;
                            font-weight: normal;
                          }
    text.regexp           {font-family: Verdana, Sans-serif;
                            font-size: 12px;
                            fill: #1F1800;
                            font-weight: normal;
                          }
    rect, circle, polygon {fill: #332900; stroke: #332900;}
    rect.terminal         {fill: #FFDB4D; stroke: #332900; stroke-width: 1;}
    rect.nonterminal      {fill: #FFEC9E; stroke: #332900; stroke-width: 1;}
    rect.text             {fill: none; stroke: none;}
    polygon.regexp        {fill: #FFF4C7; stroke: #332900; stroke-width: 1;}
  </style>
   </defs>
   <polygon points="9 17 1 13 1 21"/>
   <polygon points="17 17 9 13 9 21"/>
   <rect x="31" y="3" width="38" height="32" rx="10"/>
   <rect x="29"
         y="1"
         width="38"
         height="32"
         class="terminal"
         rx="10"/>
   <text class="terminal" x="39" y="21">for</text>
   <a xmlns:xlink="http://www.w3.org/1999/xlink"
      xlink:href="#IDENTIFIER"
      xlink:title="IDENTIFIER">
      <rect x="89" y="3" width="92" height="32"/>
      <rect x="87" y="1" width="92" height="32" class="nonterminal"/>
      <text class="nonterminal" x="97" y="21">IDENTIFIER</text>
   </a>
   <rect x="201" y="3" width="32" height="32" rx="10"/>
   <rect x="199"
         y="1"
         width="32"
         height="32"
         class="terminal"
         rx="10"/>
   <text class="terminal" x="209" y="21">in</text>
   <a xmlns:xlink="http://www.w3.org/1999/xlink"
      xlink:href="#range"
      xlink:title="range">
      <rect x="253" y="3" width="56" height="32"/>
      <rect x="251" y="1" width="56" height="32" class="nonterminal"/>
      <text class="nonterminal" x="261" y="21">range</text>
   </a>
   <a xmlns:xlink="http://www.w3.org/1999/xlink"
      xlink:href="#block"
      xlink:title="block">
      <rect x="329" y="3" width="52" height="32"/>
      <rect x="327" y="1" width="52" height="32" class="nonterminal"/>
      <text class="nonterminal" x="337" y="21">block</text>
   </a>
   <path class="line"
         d="m17 17 h2 m0 0 h10 m38 0 h10 m0 0 h10 m92 0 h10 m0 0 h10 m32 0 h10 m0 0 h10 m56 0 h10 m0 0 h10 m52 0 h10 m3 0 h-3"/>
   <polygon points="399 17 407 13 407 21"/>
   <polygon points="399 17 391 13 391 21"/>
</svg>
