<?xml version="1.0" encoding="UTF-8"?>
<svg xmlns="http://www.w3.org/2000/svg" width="229" height="125">
   <defs>
      <style type="text/css">
    @namespace "http://www.w3.org/2000/svg";
    .line                 {fill: none; stroke: #332900; stroke-width: 1;}
    .bold-line            {stroke: #141000; shape-rendering: crispEdges; stroke-width: 2;}
    .thin-line            {stroke: #1F1800; shape-rendering: crispEdges}
    .filled               {fill: #332900; stroke: none;}
    text.terminal         {font-family: Verdana, Sans-serif;
                            font-size: 12px;
                            fill: #141000;
                            font-weight: bold;
                          }
    text.nonterminal      {font-family: Verdana, Sans-serif;
                            font-size: 12px;
                            fill: #1A1400;
                            font-weight: normal;
                          }
    text.regexp           {font-family: Verdana, Sans-serif;
                            font-size: 12px;
                            fill: #1F1800;
                            font-weight: normal;
                          }
    rect, circle, polygon {fill: #332900; stroke: #332900;}
    rect.terminal         {fill: #FFDB4D; stroke: #332900; stroke-width: 1;}
    rect.nonterminal      {fill: #FFEC9E; stroke: #332900; stroke-width: 1;}
    rect.text             {fill: none; stroke: none;}
    polygon.regexp        {fill: #FFF4C7; stroke: #332900; stroke-width: 1;}
  </style>
   </defs>
   <polygon points="9 17 1 13 1 21"/>
   <polygon points="17 17 9 13 9 21"/>
   <a xmlns:xlink="http://www.w3.org/1999/xlink"
      xlink:href="#literal"
      xlink:title="literal">
      <rect x="51" y="3" width="56" height="32"/>
      <rect x="49" y="1" width="56" height="32" class="nonterminal"/>
      <text class="nonterminal" x="59" y="21">literal</text>
   </a>
   <a xmlns:xlink="http://www.w3.org/1999/xlink"
      xlink:href="#IDENTIFIER"
      xlink:title="IDENTIFIER">
      <rect x="51" y="47" width="92" height="32"/>
      <rect x="49" y="45" width="92" height="32" class="nonterminal"/>
      <text class="nonterminal" x="59" y="65">IDENTIFIER</text>
   </a>
   <a xmlns:xlink="http://www.w3.org/1999/xlink"
      xlink:href="#array_expression"
      xlink:title="array_expression">
      <rect x="51" y="91" width="130" height="32"/>
      <rect x="49" y="89" width="130" height="32" class="nonterminal"/>
      <text class="nonterminal" x="59" y="109">array_expression</text>
   </a>
   <path class="line"
         d="m17 17 h2 m20 0 h10 m56 0 h10 m0 0 h74 m-170 0 h20 m150 0 h20 m-190 0 q10 0 10 10 m170 0 q0 -10 10 -10 m-180 10 v24 m170 0 v-24 m-170 24 q0 10 10 10 m150 0 q10 0 10 -10 m-160 10 h10 m92 0 h10 m0 0 h38 m-160 -10 v20 m170 0 v-20 m-170 20 v24 m170 0 v-24 m-170 24 q0 10 10 10 m150 0 q10 0 10 -10 m-160 10 h10 m130 0 h10 m23 -88 h-3"/>
   <polygon points="219 17 227 13 227 21"/>
   <polygon points="219 17 211 13 211 21"/>
</svg>
