<?xml version="1.0" encoding="UTF-8"?>
<svg xmlns="http://www.w3.org/2000/svg" width="261" height="257">
   <defs>
      <style type="text/css">
    @namespace "http://www.w3.org/2000/svg";
    .line                 {fill: none; stroke: #332900; stroke-width: 1;}
    .bold-line            {stroke: #141000; shape-rendering: crispEdges; stroke-width: 2;}
    .thin-line            {stroke: #1F1800; shape-rendering: crispEdges}
    .filled               {fill: #332900; stroke: none;}
    text.terminal         {font-family: Verdana, Sans-serif;
                            font-size: 12px;
                            fill: #141000;
                            font-weight: bold;
                          }
    text.nonterminal      {font-family: Verdana, Sans-serif;
                            font-size: 12px;
                            fill: #1A1400;
                            font-weight: normal;
                          }
    text.regexp           {font-family: Verdana, Sans-serif;
                            font-size: 12px;
                            fill: #1F1800;
                            font-weight: normal;
                          }
    rect, circle, polygon {fill: #332900; stroke: #332900;}
    rect.terminal         {fill: #FFDB4D; stroke: #332900; stroke-width: 1;}
    rect.nonterminal      {fill: #FFEC9E; stroke: #332900; stroke-width: 1;}
    rect.text             {fill: none; stroke: none;}
    polygon.regexp        {fill: #FFF4C7; stroke: #332900; stroke-width: 1;}
  </style>
   </defs>
   <polygon points="9 17 1 13 1 21"/>
   <polygon points="17 17 9 13 9 21"/>
   <a xmlns:xlink="http://www.w3.org/1999/xlink"
      xlink:href="#declaration"
      xlink:title="declaration">
      <rect x="51" y="3" width="90" height="32"/>
      <rect x="49" y="1" width="90" height="32" class="nonterminal"/>
      <text class="nonterminal" x="59" y="21">declaration</text>
   </a>
   <a xmlns:xlink="http://www.w3.org/1999/xlink"
      xlink:href="#control_flow"
      xlink:title="control_flow">
      <rect x="51" y="47" width="96" height="32"/>
      <rect x="49" y="45" width="96" height="32" class="nonterminal"/>
      <text class="nonterminal" x="59" y="65">control_flow</text>
   </a>
   <a xmlns:xlink="http://www.w3.org/1999/xlink"
      xlink:href="#function_definition"
      xlink:title="function_definition">
      <rect x="51" y="91" width="138" height="32"/>
      <rect x="49" y="89" width="138" height="32" class="nonterminal"/>
      <text class="nonterminal" x="59" y="109">function_definition</text>
   </a>
   <a xmlns:xlink="http://www.w3.org/1999/xlink"
      xlink:href="#expression_statement"
      xlink:title="expression_statement">
      <rect x="51" y="135" width="162" height="32"/>
      <rect x="49" y="133" width="162" height="32" class="nonterminal"/>
      <text class="nonterminal" x="59" y="153">expression_statement</text>
   </a>
   <a xmlns:xlink="http://www.w3.org/1999/xlink"
      xlink:href="#error_handling"
      xlink:title="error_handling">
      <rect x="51" y="179" width="114" height="32"/>
      <rect x="49" y="177" width="114" height="32" class="nonterminal"/>
      <text class="nonterminal" x="59" y="197">error_handling</text>
   </a>
   <a xmlns:xlink="http://www.w3.org/1999/xlink"
      xlink:href="#pattern_matching"
      xlink:title="pattern_matching">
      <rect x="51" y="223" width="132" height="32"/>
      <rect x="49" y="221" width="132" height="32" class="nonterminal"/>
      <text class="nonterminal" x="59" y="241">pattern_matching</text>
   </a>
   <path class="line"
         d="m17 17 h2 m20 0 h10 m90 0 h10 m0 0 h72 m-202 0 h20 m182 0 h20 m-222 0 q10 0 10 10 m202 0 q0 -10 10 -10 m-212 10 v24 m202 0 v-24 m-202 24 q0 10 10 10 m182 0 q10 0 10 -10 m-192 10 h10 m96 0 h10 m0 0 h66 m-192 -10 v20 m202 0 v-20 m-202 20 v24 m202 0 v-24 m-202 24 q0 10 10 10 m182 0 q10 0 10 -10 m-192 10 h10 m138 0 h10 m0 0 h24 m-192 -10 v20 m202 0 v-20 m-202 20 v24 m202 0 v-24 m-202 24 q0 10 10 10 m182 0 q10 0 10 -10 m-192 10 h10 m162 0 h10 m-192 -10 v20 m202 0 v-20 m-202 20 v24 m202 0 v-24 m-202 24 q0 10 10 10 m182 0 q10 0 10 -10 m-192 10 h10 m114 0 h10 m0 0 h48 m-192 -10 v20 m202 0 v-20 m-202 20 v24 m202 0 v-24 m-202 24 q0 10 10 10 m182 0 q10 0 10 -10 m-192 10 h10 m132 0 h10 m0 0 h30 m23 -220 h-3"/>
   <polygon points="251 17 259 13 259 21"/>
   <polygon points="251 17 243 13 243 21"/>
</svg>
