<?xml version="1.0" encoding="UTF-8"?>
<svg xmlns="http://www.w3.org/2000/svg" width="413" height="37">
   <defs>
      <style type="text/css">
    @namespace "http://www.w3.org/2000/svg";
    .line                 {fill: none; stroke: #332900; stroke-width: 1;}
    .bold-line            {stroke: #141000; shape-rendering: crispEdges; stroke-width: 2;}
    .thin-line            {stroke: #1F1800; shape-rendering: crispEdges}
    .filled               {fill: #332900; stroke: none;}
    text.terminal         {font-family: Verdana, Sans-serif;
                            font-size: 12px;
                            fill: #141000;
                            font-weight: bold;
                          }
    text.nonterminal      {font-family: Verdana, Sans-serif;
                            font-size: 12px;
                            fill: #1A1400;
                            font-weight: normal;
                          }
    text.regexp           {font-family: Verdana, Sans-serif;
                            font-size: 12px;
                            fill: #1F1800;
                            font-weight: normal;
                          }
    rect, circle, polygon {fill: #332900; stroke: #332900;}
    rect.terminal         {fill: #FFDB4D; stroke: #332900; stroke-width: 1;}
    rect.nonterminal      {fill: #FFEC9E; stroke: #332900; stroke-width: 1;}
    rect.text             {fill: none; stroke: none;}
    polygon.regexp        {fill: #FFF4C7; stroke: #332900; stroke-width: 1;}
  </style>
   </defs>
   <polygon points="9 17 1 13 1 21"/>
   <polygon points="17 17 9 13 9 21"/>
   <rect x="31" y="3" width="38" height="32" rx="10"/>
   <rect x="29"
         y="1"
         width="38"
         height="32"
         class="terminal"
         rx="10"/>
   <text class="terminal" x="39" y="21">let</text>
   <a xmlns:xlink="http://www.w3.org/1999/xlink"
      xlink:href="#IDENTIFIER"
      xlink:title="IDENTIFIER">
      <rect x="89" y="3" width="92" height="32"/>
      <rect x="87" y="1" width="92" height="32" class="nonterminal"/>
      <text class="nonterminal" x="97" y="21">IDENTIFIER</text>
   </a>
   <rect x="201" y="3" width="30" height="32" rx="10"/>
   <rect x="199"
         y="1"
         width="30"
         height="32"
         class="terminal"
         rx="10"/>
   <text class="terminal" x="209" y="21">=</text>
   <a xmlns:xlink="http://www.w3.org/1999/xlink"
      xlink:href="#expression"
      xlink:title="expression">
      <rect x="251" y="3" width="90" height="32"/>
      <rect x="249" y="1" width="90" height="32" class="nonterminal"/>
      <text class="nonterminal" x="259" y="21">expression</text>
   </a>
   <rect x="361" y="3" width="24" height="32" rx="10"/>
   <rect x="359"
         y="1"
         width="24"
         height="32"
         class="terminal"
         rx="10"/>
   <text class="terminal" x="369" y="21">;</text>
   <path class="line"
         d="m17 17 h2 m0 0 h10 m38 0 h10 m0 0 h10 m92 0 h10 m0 0 h10 m30 0 h10 m0 0 h10 m90 0 h10 m0 0 h10 m24 0 h10 m3 0 h-3"/>
   <polygon points="403 17 411 13 411 21"/>
   <polygon points="403 17 395 13 395 21"/>
</svg>
